<?xml version="1.0" standalone="no"?>
<!DOCTYPE svg PUBLIC "-//W3C//DTD SVG 20010904//EN"
 "http://www.w3.org/TR/2001/REC-SVG-20010904/DTD/svg10.dtd">
<svg version="1.0" xmlns="http://www.w3.org/2000/svg"
 width="700.000000pt" height="700.000000pt" viewBox="0 0 700.000000 700.000000"
 preserveAspectRatio="xMidYMid meet">
<metadata>
Created by potrace 1.11, written by Peter Selinger 2001-2013
</metadata>
<g transform="translate(0.000000,700.000000) scale(0.100000,-0.100000)"
fill="#000000" stroke="none">
<path d="M180 3480 l0 -3350 3320 0 3320 0 0 1853 c-1 1549 -3 1847 -14 1822
-414 -935 -888 -2040 -1242 -2898 -152 -369 -182 -423 -277 -501 -69 -56 -113
-67 -190 -45 -46 12 -109 67 -130 112 -8 17 -141 318 -295 667 -1151 2613
-2296 5182 -2388 5361 -78 151 -201 273 -312 311 -28 9 -249 13 -914 16 l-878
3 0 -3351z"/>
<path d="M3606 6820 c-85 -26 -141 -164 -117 -292 24 -130 1603 -3788 1890
-4378 23 -47 57 -106 76 -133 30 -40 40 -47 68 -47 23 0 41 8 59 27 16 18 107
225 241 548 561 1353 813 1957 899 2155 l93 215 3 958 2 957 -1592 -1 c-876 0
-1606 -5 -1622 -9z"/>
</g>
</svg>
